<?xml version="1.0" encoding="UTF-8" standalone="no"?>
<svg
   height="16"
   width="20"
   viewBox="0 0 640 512"
   version="1.1"
   id="svg1"
   sodipodi:docname="discord.svg"
   inkscape:version="1.3.2 (091e20e, 2023-11-25, custom)"
   xmlns:inkscape="http://www.inkscape.org/namespaces/inkscape"
   xmlns:sodipodi="http://sodipodi.sourceforge.net/DTD/sodipodi-0.dtd"
   xmlns="http://www.w3.org/2000/svg"
   xmlns:svg="http://www.w3.org/2000/svg">
  <defs
     id="defs1" />
  <sodipodi:namedview
     id="namedview1"
     pagecolor="#ffffff"
     bordercolor="#000000"
     borderopacity="0.25"
     inkscape:showpageshadow="2"
     inkscape:pageopacity="0.0"
     inkscape:pagecheckerboard="0"
     inkscape:deskcolor="#d1d1d1"
     inkscape:zoom="49.9375"
     inkscape:cx="9.9924906"
     inkscape:cy="8"
     inkscape:window-width="1920"
     inkscape:window-height="1013"
     inkscape:window-x="951"
     inkscape:window-y="204"
     inkscape:window-maximized="1"
     inkscape:current-layer="svg1" />
  <!--!Font Awesome Free 6.5.1 by @fontawesome - https://fontawesome.com License - https://fontawesome.com/license/free Copyright 2023 Fonticons, Inc.-->
  <path
     opacity="1"
     fill="#1E3050"
     d="m 521.42735,71.098593 a 1.5514913,1.5514913 0 0 0 -0.82746,-0.72403 501.75228,501.75228 0 0 0 -123.70557,-38.373551 1.8617895,1.8617895 0 0 0 -1.96523,0.930895 349.08554,349.08554 0 0 0 -15.41148,31.650422 463.17186,463.17186 0 0 0 -139.01362,0 320.12437,320.12437 0 0 0 -15.61834,-31.650422 1.9652223,1.9652223 0 0 0 -1.96522,-0.930895 500.30422,500.30422 0 0 0 -123.91244,38.373551 1.7583568,1.7583568 0 0 0 -0.827462,0.72403 C 19.364771,188.9085 -2.2526747,303.71885 8.2974661,417.18458 a 2.068655,2.068655 0 0 0 0.827462,1.44806 504.44153,504.44153 0 0 0 151.8392819,76.64367 1.9652223,1.9652223 0 0 0 2.17209,-0.72403 360.15284,360.15284 0 0 0 31.02982,-50.47518 1.9652223,1.9652223 0 0 0 -1.03433,-2.68925 332.226,332.226 0 0 1 -47.47563,-22.65178 1.9652223,1.9652223 0 0 1 -0.20686,-3.20641 c 3.20641,-2.37896 6.41283,-4.86134 9.41238,-7.34373 a 1.8617895,1.8617895 0 0 1 1.96522,-0.3103 c 99.50231,45.40698 207.27923,45.40698 305.64378,0 a 1.8617895,1.8617895 0 0 1 1.96522,0.20687 c 2.99955,2.48239 6.20597,5.0682 9.41238,7.44716 a 1.9652223,1.9652223 0 0 1 -0.20686,3.20641 311.74632,311.74632 0 0 1 -47.47564,22.54834 1.9652223,1.9652223 0 0 0 -1.03432,2.68925 404.52549,404.52549 0 0 0 31.02982,50.47519 1.9652223,1.9652223 0 0 0 2.17209,0.72403 502.68318,502.68318 0 0 0 152.25301,-76.64367 1.9652223,1.9652223 0 0 0 0.82746,-1.44806 C 624.03264,286.03185 590.1067,172.15239 521.42735,71.098593 Z M 209.06044,348.0915 c -29.9955,0 -54.6125,-27.51311 -54.6125,-61.23219 0,-33.71907 24.20327,-61.33562 54.6125,-61.33562 30.71953,0 55.12965,27.71998 54.61249,61.23219 0,33.82251 -24.20326,61.33562 -54.61249,61.33562 z m 202.1076,0 c -29.9955,0 -54.6125,-27.51311 -54.6125,-61.23219 0,-33.71907 24.09983,-61.33562 54.6125,-61.33562 30.71952,0 55.12965,27.71998 54.61249,61.23219 0,33.82251 -23.9964,61.33562 -54.61249,61.33562 z"
     id="path1"
     style="fill:#1d003c;fill-opacity:1;stroke-width:1.03433" />
</svg>
