<?xml version="1.0" encoding="UTF-8" standalone="no"?>
<svg
   height="16"
   width="15.5"
   viewBox="0 0 496 512"
   version="1.1"
   id="svg1"
   sodipodi:docname="github.svg"
   inkscape:version="1.3.2 (091e20e, 2023-11-25, custom)"
   xmlns:inkscape="http://www.inkscape.org/namespaces/inkscape"
   xmlns:sodipodi="http://sodipodi.sourceforge.net/DTD/sodipodi-0.dtd"
   xmlns="http://www.w3.org/2000/svg"
   xmlns:svg="http://www.w3.org/2000/svg">
  <defs
     id="defs1" />
  <sodipodi:namedview
     id="namedview1"
     pagecolor="#ffffff"
     bordercolor="#000000"
     borderopacity="0.25"
     inkscape:showpageshadow="2"
     inkscape:pageopacity="0.0"
     inkscape:pagecheckerboard="0"
     inkscape:deskcolor="#d1d1d1"
     inkscape:zoom="49.9375"
     inkscape:cx="7.7496871"
     inkscape:cy="8"
     inkscape:window-width="1920"
     inkscape:window-height="1013"
     inkscape:window-x="951"
     inkscape:window-y="204"
     inkscape:window-maximized="1"
     inkscape:current-layer="svg1" />
  <!--!Font Awesome Free 6.5.1 by @fontawesome - https://fontawesome.com License - https://fontawesome.com/license/free Copyright 2023 Fonticons, Inc.-->
  <path
     opacity="1"
     fill="#1e3050"
     d="m 168.50451,387.06391 c 0,1.93375 -2.22381,3.48075 -5.02774,3.48075 -3.19069,0.29006 -5.4145,-1.25694 -5.4145,-3.48075 0,-1.93375 2.22381,-3.48075 5.02775,-3.48075 2.90062,-0.29006 5.41449,1.25694 5.41449,3.48075 z m -30.06978,-4.35093 c -0.67681,1.93374 1.25694,4.15755 4.15756,4.73768 2.51387,0.96687 5.4145,0 5.99462,-1.93375 0.58013,-1.93375 -1.25694,-4.15756 -4.15756,-5.02774 -2.51387,-0.67682 -5.3178,0.29006 -5.99462,2.22381 z m 42.73583,-1.64369 c -2.80393,0.67681 -4.73768,2.51387 -4.44762,4.73768 0.29006,1.93375 2.80394,3.19069 5.70456,2.51388 2.80393,-0.67682 4.73768,-2.51388 4.44762,-4.44762 -0.29006,-1.83707 -2.90062,-3.094 -5.70456,-2.80394 z m 63.6203,-370.506086 c -134.10541,0 -236.690731,101.811826 -236.690731,235.917236 0,107.22632 67.487799,198.98265 163.885131,231.27624 12.37599,2.22381 16.72692,-5.41449 16.72692,-11.69917 0,-5.99462 -0.29006,-39.06171 -0.29006,-59.36606 0,0 -67.68118,14.50311 -81.89422,-28.81284 0,0 -11.022362,-28.13603 -26.879102,-35.38759 0,0 -22.141412,-15.17992 1.546998,-14.88986 0,0 24.075164,1.93375 37.321334,24.94535 21.17454,37.32133 56.65881,26.58903 70.48511,20.20767 2.22381,-15.46999 8.50849,-26.20229 15.46998,-32.58366 -54.04825,-5.99461 -108.579932,-13.82629 -108.579932,-106.83956 0,-26.58903 7.348242,-39.93189 22.818222,-56.94888 -2.51388,-6.28468 -10.7323,-32.1969 2.51387,-65.65073 20.20766,-6.28469 66.7143,26.10559 66.7143,26.10559 19.33748,-5.41449 40.12527,-8.21843 60.71968,-8.21843 20.59441,0 41.3822,2.80394 60.71968,8.21843 0,0 46.50664,-32.48697 66.7143,-26.10559 13.24617,33.55052 5.02775,59.36605 2.51387,65.65073 15.46999,17.11367 24.94535,30.45653 24.94535,56.94888 0,93.30333 -56.94887,100.74826 -110.99712,106.83956 8.89524,7.63831 16.43685,22.14142 16.43685,44.86295 0,32.58365 -0.29006,72.9023 -0.29006,80.83066 0,6.28468 4.44762,13.92299 16.72692,11.69918 96.68739,-32.10022 162.24144,-123.85655 162.24144,-231.08287 0,-134.10541 -108.77331,-235.917236 -242.87873,-235.917236 z M 102.08028,344.03802 c -1.25694,0.96687 -0.96687,3.19068 0.67681,5.02774 1.547,1.547 3.77081,2.22381 5.02774,0.96688 1.25694,-0.96688 0.96688,-3.19069 -0.67681,-5.02775 -1.547,-1.54699 -3.7708,-2.22381 -5.02774,-0.96687 z m -10.442245,-7.83168 c -0.676812,1.25694 0.290062,2.80394 2.223813,3.77081 1.54699,0.96687 3.48075,0.67681 4.15756,-0.67681 0.67681,-1.25694 -0.29006,-2.80394 -2.22381,-3.77081 -1.93375,-0.58012 -3.48075,-0.29006 -4.157563,0.67681 z m 31.326715,34.42071 c -1.547,1.25694 -0.96687,4.15756 1.25694,5.99462 2.22381,2.22381 5.02774,2.51387 6.28468,0.96687 1.25693,-1.25693 0.67681,-4.15755 -1.25694,-5.99461 -2.12712,-2.22381 -5.02774,-2.51388 -6.28468,-0.96688 z m -11.02236,-14.21304 c -1.547,0.96687 -1.547,3.48074 0,5.70455 1.547,2.22381 4.15756,3.19069 5.41449,2.22381 1.547,-1.25693 1.547,-3.77081 0,-5.99462 -1.35362,-2.22381 -3.86749,-3.19068 -5.41449,-1.93374 z"
     id="path1"
     style="fill:#1d003c;fill-opacity:1;stroke-width:0.966874" />
</svg>
