<?xml version="1.0" encoding="UTF-8" standalone="no"?>
<!-- Uploaded to: SVG Repo, www.svgrepo.com, Generator: SVG Repo Mixer Tools -->

<svg
   fill="#000000"
   width="800px"
   height="800px"
   viewBox="0 0 24 24"
   role="img"
   version="1.1"
   id="svg1"
   sodipodi:docname="sourceforge.svg"
   inkscape:version="1.3.2 (091e20e, 2023-11-25, custom)"
   xmlns:inkscape="http://www.inkscape.org/namespaces/inkscape"
   xmlns:sodipodi="http://sodipodi.sourceforge.net/DTD/sodipodi-0.dtd"
   xmlns="http://www.w3.org/2000/svg"
   xmlns:svg="http://www.w3.org/2000/svg">
  <defs
     id="defs1" />
  <sodipodi:namedview
     id="namedview1"
     pagecolor="#ffffff"
     bordercolor="#000000"
     borderopacity="0.25"
     inkscape:showpageshadow="2"
     inkscape:pageopacity="0.0"
     inkscape:pagecheckerboard="0"
     inkscape:deskcolor="#d1d1d1"
     inkscape:zoom="0.99875"
     inkscape:cx="399.49937"
     inkscape:cy="400"
     inkscape:window-width="1920"
     inkscape:window-height="1013"
     inkscape:window-x="951"
     inkscape:window-y="204"
     inkscape:window-maximized="1"
     inkscape:current-layer="svg1" />
  <title
     id="title1">SourceForge icon</title>
  <path
     d="m 10.028038,1.5248751 c -0.088,0 -0.1761005,0.0395 -0.2402005,0.1036 L 0.13163755,11.274875 c -0.1361,0.1281 -0.1361,0.3444 0,0.4805 l 9.15229995,9.1348 c 0.064,0.072 0.1522,0.1054 0.2402,0.1054 0.0881,0 0.1743,-0.0414 0.2383,-0.1054 l 1.3692005,-1.3848 c 0.136,-0.128 0.136,-0.3444 0,-0.4805 l -7.1720005,-7.1738 a 0.4682,0.4682 0 0 1 0,-0.664 L 13.037838,2.1088751 c 0.1201,-0.12 0.1123,-0.2728 0.0723,-0.377 -0.04,-0.096 -0.1444,-0.207 -0.3125,-0.207 z m 4.5313,1.5918 c -0.088,0 -0.1762,0.0415 -0.2402,0.1055 l -1.3926,1.3926 c -0.1361,0.128 -0.1361,0.3444 0,0.4805 l 7.1719,7.1815999 c 0.088,0.088 0.1367,0.208 0.1367,0.3281 0,0.1201 -0.0487,0.24 -0.1367,0.3281 l -9.0782,9.0782 c -0.12,0.12 -0.1123,0.2728 -0.0722,0.377 0.04,0.096 0.1443,0.207 0.3125,0.207 v -0.0079 h 2.7695 c 0.088,0 0.1762,-0.0316 0.2402,-0.0957 l 9.6563,-9.6543 c 0.072,-0.064 0.1035,-0.1521 0.1035,-0.2402 0,-0.088 -0.0395,-0.1762 -0.1035,-0.2402 l -9.127,-9.1347999 c -0.064,-0.072 -0.1521,-0.1055 -0.2402,-0.1055 z m -3.0957,3.1564 c -0.1125,0.005 -0.2164,0.1007 -0.211,0.2383 0.1442,2.2176 -2.6425005,2.7635 -2.6425005,6.2459999 v 0.0235 c 0,2.1216 1.6026005,3.8418 3.5800005,3.8418 1.9775,0 3.5782,-1.7202 3.5782,-3.8418 v -0.0234 c 0,-0.9848 -0.3679,-1.9225 -0.7442,-2.627 -0.072,-0.1359999 -0.2896,-0.087 -0.2656,0.041 0.6725,2.9943 -1.0156,4.8507 -1.0156,2.545 0,-3.9309999 -1.3943,-5.7161999 -2.1309,-6.3886999 a 0.2072,0.2072 0 0 0 -0.1484,-0.0547 z"
     id="path1"
     style="fill:#1d003c;fill-opacity:1"
     inkscape:label="path1" />
</svg>
